<?xml version="1.0" encoding="utf-8"?>
<!-- Generator: Adobe Illustrator 27.5.0, SVG Export Plug-In . SVG Version: 6.00 Build 0)  -->
<svg version="1.1" xmlns="http://www.w3.org/2000/svg" xmlns:xlink="http://www.w3.org/1999/xlink" x="0px" y="0px"
	 viewBox="0 0 700 500" style="enable-background:new 0 0 700 500;" xml:space="preserve">
<g id="BACKGROUND">
	<rect y="373.423" style="fill:#F0F3FA;" width="700" height="126.577"/>
</g>
<g id="OBJECTS">
	<g>
		<g>
			<path style="fill:#DCEDFD;" d="M178.503,275.68c-0.003-0.022-0.021-0.037-0.027-0.059c0.016-0.025,0.043-0.039,0.055-0.068
				c0.156-0.391,15.398-39.506-0.582-82.503c-0.08-0.214-0.281-0.346-0.52-0.336c-0.228,0.016-0.419,0.18-0.469,0.404
				c-0.093,0.422-9.084,41.965,0.108,80.414c-2.027-3.081-4.55-5.947-7.088-8.695c-1.778-1.924-3.575-3.837-5.385-5.74
				c-0.002-0.025,0.004-0.05-0.002-0.076c-2.082-9.668,0.76-31.111,2.835-46.769c0.505-3.808,0.981-7.406,1.335-10.434
				c1.82-15.564-1.945-24.673-2.106-25.053c-0.071-0.167-0.225-0.285-0.404-0.31c-0.181-0.027-0.36,0.046-0.474,0.187
				c-0.313,0.389-7.702,9.789-9.766,33.26c-1.733,19.702,4.746,41.02,6.91,47.459c-6.925-7.214-14.074-14.26-21.4-21.092
				c0.006-0.012,0.019-0.017,0.023-0.029c0.156-0.39,15.397-39.506-0.583-82.502c-0.08-0.214-0.286-0.349-0.52-0.335
				c-0.228,0.016-0.419,0.18-0.469,0.404c-0.094,0.426-9.225,42.631,0.334,81.334c-4.352-4.034-8.758-8.002-13.221-11.873
				c-0.959-0.832-1.934-1.661-2.901-2.491c-1.613-9.837,2.032-30.951,4.7-46.402c0.654-3.786,1.272-7.363,1.745-10.375
				c2.43-15.481-0.976-24.73-1.122-25.116c-0.064-0.17-0.213-0.294-0.392-0.326c-0.18-0.033-0.362,0.032-0.48,0.169
				c-0.328,0.376-8.08,9.479-11.064,32.851c-2.533,19.842,3.261,41.658,5.105,47.904c-0.765-0.655-1.522-1.31-2.289-1.965
				c-4.351-3.718-8.737-7.474-13.017-11.344c0.44-3.715,4.466-43.55-18.909-80.192c-0.124-0.195-0.363-0.283-0.584-0.217
				c-0.221,0.067-0.371,0.272-0.368,0.503c0.007,0.432,0.864,42.602,17.658,77.897c-6.366-5.88-12.409-12.066-17.637-18.826
				c-1.092-2.694-17.872-43.278-42.113-58.85c-0.195-0.125-0.45-0.106-0.623,0.049c-0.173,0.154-0.222,0.405-0.12,0.613
				c0.965,1.964,23.841,48.203,42.131,58.94c4.884,6.297,10.463,12.09,16.345,17.601c-5.705-3.078-16.921-8.475-29.159-10.784
				c-17.392-3.282-28.601-6.442-28.713-6.473c-0.199-0.055-0.415,0.013-0.545,0.176c-0.13,0.163-0.148,0.389-0.047,0.572
				c0.07,0.126,7.163,12.703,21.301,16.539c10.54,2.86,28.209,3.219,36.414,3.219c2.222,0,3.734-0.026,4.238-0.036
				c4.299,3.889,8.706,7.662,13.076,11.397c0.977,0.835,1.943,1.671,2.917,2.505c-3.009,0.623-13.16,2.066-27.345-2.86
				c-17.301-6.008-39.539,0.628-39.761,0.695c-0.238,0.073-0.391,0.305-0.363,0.552c0.028,0.247,0.229,0.439,0.477,0.457
				c7.034,0.501,13.937,3.093,20.613,5.6c7.422,2.787,15.08,5.663,22.951,5.663c0.5,0,1.002-0.012,1.504-0.036
				c13.861-0.664,21.445-7.493,23.051-9.104c0.882,0.758,1.773,1.515,2.649,2.275c4.356,3.778,8.657,7.648,12.908,11.582
				c-4.958-0.725-19.512-2.398-33.801,0.367c-17.377,3.36-28.962,4.554-29.077,4.566c-0.208,0.021-0.382,0.165-0.442,0.365
				c-0.061,0.199,0.005,0.416,0.166,0.548c0.102,0.084,9.552,7.723,22.344,7.723c1.158,0,2.345-0.063,3.553-0.199
				c13.464-1.522,35.705-10.665,38.783-11.95c7.583,7.073,14.979,14.373,22.129,21.853c-3.016,0.745-13.083,2.559-27.407-1.792
				c-17.523-5.321-39.484,2.179-39.703,2.255c-0.236,0.082-0.379,0.32-0.341,0.566c0.037,0.246,0.245,0.431,0.494,0.439
				c7.049,0.224,14.048,2.543,20.818,4.786c7.11,2.356,14.435,4.782,21.854,4.782c0.932,0,1.867-0.038,2.801-0.12
				c13.376-1.168,20.668-7.887,22.523-9.838c1.751,1.842,3.487,3.693,5.207,5.555c2.756,2.983,5.49,6.105,7.562,9.477
				c-4.436-0.676-19.502-2.562-34.28,0.294c-17.377,3.361-28.962,4.555-29.077,4.568c-0.208,0.021-0.382,0.164-0.442,0.364
				c-0.061,0.2,0.005,0.416,0.167,0.548c0.102,0.085,9.551,7.723,22.344,7.723c1.158,0,2.345-0.063,3.553-0.199
				c13.197-1.492,34.816-10.3,38.57-11.861c1.339,2.467,2.293,5.069,2.613,7.853c0.03,0.264,0.253,0.458,0.513,0.458
				c0.02,0,0.039-0.001,0.059-0.003c0.284-0.033,0.487-0.289,0.454-0.572c-0.342-2.975-1.364-5.733-2.79-8.334
				C178.48,275.796,178.509,275.742,178.503,275.68z"/>
			<path style="fill:#F0F3FA;" d="M432.685,108.148c3.726-0.342,43.527-4.676,74.516-35.151c0.165-0.162,0.202-0.414,0.091-0.617
				c-0.111-0.202-0.343-0.307-0.568-0.255c-0.421,0.096-41.494,9.693-72.531,33.451c4.429-7.448,9.226-14.644,14.752-21.162
				c2.337-1.579,38.612-26.441,48.821-53.417c0.081-0.217,0.01-0.462-0.178-0.599c-0.187-0.137-0.442-0.133-0.625,0.01
				c-1.721,1.352-42.198,33.33-48.904,53.452c-5.146,6.086-9.655,12.747-13.824,19.646c1.826-6.22,4.776-18.313,4.493-30.763
				c-0.402-17.694,0.361-29.316,0.368-29.431c0.012-0.207-0.099-0.404-0.285-0.497c-0.187-0.093-0.411-0.064-0.569,0.072
				c-0.109,0.095-10.938,9.645-11.755,24.271c-0.609,10.903,2.708,28.257,4.413,36.285c0.462,2.176,0.802,3.651,0.917,4.143
				c-2.911,5.013-5.687,10.106-8.432,15.156c-0.615,1.131-1.232,2.25-1.846,3.377c-1.235-2.808-4.755-12.422-2.881-27.344
				c2.284-18.173-8.826-38.546-8.938-38.75c-0.121-0.218-0.379-0.319-0.616-0.241c-0.236,0.079-0.382,0.315-0.348,0.561
				c0.97,6.985-0.132,14.276-1.197,21.326c-1.184,7.839-2.407,15.928-0.773,23.626c0.104,0.489,0.22,0.979,0.348,1.465
				c3.528,13.421,11.783,19.421,13.693,20.657c-0.558,1.021-1.114,2.049-1.675,3.064c-2.791,5.045-5.683,10.056-8.649,15.032
				c-0.321-5.001-1.708-19.585-7.378-32.988c-6.896-16.301-10.47-27.385-10.505-27.495c-0.064-0.199-0.241-0.34-0.449-0.357
				c-0.208-0.018-0.406,0.091-0.502,0.277c-0.061,0.118-5.57,10.948-2.913,23.461c0.241,1.133,0.548,2.281,0.932,3.434
				c4.285,12.855,17.847,32.711,19.744,35.455c-5.344,8.886-10.948,17.636-16.78,26.184c-1.349-2.768-5.226-12.211-3.939-27.181
				c1.567-18.248-10.331-38.17-10.452-38.369c-0.129-0.213-0.391-0.304-0.624-0.216c-0.233,0.088-0.37,0.329-0.326,0.574
				c1.244,6.941,0.429,14.269-0.359,21.356c-0.828,7.445-1.681,15.114-0.14,22.372c0.194,0.912,0.425,1.818,0.699,2.716
				c3.92,12.841,12.006,18.578,14.3,19.989c-1.438,2.095-2.888,4.178-4.352,6.248c-2.345,3.315-4.831,6.637-7.699,9.364
				c-0.261-4.48-1.544-19.609-7.408-33.471c-6.895-16.301-10.47-27.385-10.505-27.495c-0.064-0.199-0.241-0.34-0.449-0.357
				c-0.208-0.018-0.406,0.091-0.502,0.277c-0.061,0.118-5.57,10.947-2.914,23.46c0.241,1.133,0.549,2.282,0.933,3.435
				c4.199,12.598,17.305,31.915,19.612,35.265c-2.135,1.823-4.482,3.296-7.139,4.187c-0.251,0.084-0.395,0.344-0.341,0.596
				c0.004,0.02,0.009,0.039,0.016,0.058c0.09,0.27,0.384,0.417,0.654,0.326c2.839-0.952,5.324-2.525,7.572-4.46
				c0.06,0.002,0.118,0.02,0.177,0c0.022-0.007,0.032-0.029,0.052-0.039c0.028,0.01,0.047,0.034,0.077,0.039
				c0.414,0.072,41.843,6.858,80.583-17.702c0.194-0.123,0.273-0.354,0.22-0.578c-0.063-0.221-0.263-0.373-0.493-0.375
				c-0.432-0.003-42.936-0.171-78.638,16.805c2.592-2.623,4.873-5.685,7.033-8.739c1.513-2.139,3.011-4.293,4.496-6.46
				c0.025-0.007,0.05-0.007,0.074-0.017c9.024-4.044,30.589-5.718,46.335-6.94c3.831-0.297,7.45-0.578,10.486-0.86
				c15.603-1.452,23.731-7.028,24.069-7.265c0.149-0.104,0.232-0.278,0.219-0.459c-0.01-0.188-0.12-0.344-0.281-0.425
				c-0.445-0.225-11.175-5.5-34.563-2.645c-19.633,2.397-39.139,13.162-44.989,16.616c5.618-8.273,11.026-16.729,16.188-25.315
				c0.012,0.003,0.02,0.015,0.033,0.017c0.414,0.072,41.843,6.858,80.582-17.703c0.193-0.122,0.282-0.351,0.22-0.578
				c-0.063-0.22-0.263-0.373-0.493-0.374c-0.436-0.004-43.617-0.171-79.491,17.218c3.043-5.096,6.009-10.229,8.868-15.398
				c0.615-1.111,1.223-2.237,1.835-3.355c9.289-3.62,30.702-4.44,46.373-5.039c3.837-0.147,7.462-0.285,10.505-0.448
				c15.648-0.839,23.989-6.09,24.336-6.313c0.153-0.098,0.243-0.269,0.237-0.451c-0.004-0.184-0.107-0.347-0.264-0.435
				c-0.436-0.243-10.951-5.935-34.433-4c-19.935,1.642-40.072,11.84-45.799,14.942c0.482-0.884,0.966-1.761,1.448-2.648
				C427.025,118.208,429.789,113.137,432.685,108.148z"/>
			<path style="fill:#DCEDFD;" d="M658.743,304.683c-0.13-0.164-0.347-0.232-0.546-0.177c-0.111,0.032-11.316,3.191-28.713,6.473
				c-12.236,2.308-23.451,7.705-29.157,10.783c5.882-5.511,11.46-11.304,16.344-17.601c18.291-10.739,41.165-56.975,42.131-58.939
				c0.102-0.208,0.052-0.459-0.12-0.613c-0.174-0.154-0.428-0.174-0.624-0.049c-24.244,15.575-41.026,56.169-42.114,58.852
				c-5.228,6.759-11.271,12.945-17.637,18.825c16.794-35.295,17.652-77.466,17.659-77.898c0.004-0.231-0.146-0.436-0.368-0.503
				c-0.218-0.066-0.46,0.022-0.584,0.217c-23.378,36.647-19.348,76.486-18.909,80.193c-4.28,3.87-8.667,7.627-13.018,11.344
				c-0.766,0.655-1.523,1.31-2.287,1.964c1.844-6.245,7.638-28.062,5.105-47.905c-2.984-23.372-10.736-32.475-11.064-32.851
				c-0.12-0.136-0.299-0.199-0.481-0.168c-0.179,0.032-0.327,0.156-0.391,0.326c-0.146,0.386-3.55,9.635-1.122,25.115
				c0.473,3.012,1.091,6.587,1.745,10.373c2.669,15.452,6.314,36.568,4.701,46.405c-0.967,0.83-1.942,1.659-2.901,2.492
				c-4.463,3.871-8.869,7.839-13.222,11.873c9.56-38.703,0.429-80.909,0.334-81.335c-0.049-0.223-0.24-0.387-0.469-0.404
				c-0.224-0.018-0.44,0.121-0.52,0.336c-15.979,42.996-0.739,82.111-0.582,82.502c0.005,0.012,0.018,0.018,0.024,0.029
				c-7.327,6.833-14.476,13.878-21.402,21.093c2.164-6.438,8.645-27.757,6.911-47.461c-2.065-23.471-9.453-32.871-9.766-33.259
				c-0.114-0.142-0.287-0.211-0.474-0.188c-0.18,0.025-0.333,0.142-0.404,0.31c-0.161,0.38-3.928,9.489-2.108,25.053
				c0.354,3.029,0.831,6.627,1.336,10.435c2.075,15.658,4.917,37.1,2.834,46.768c-0.006,0.026,0,0.051-0.002,0.077
				c-1.81,1.902-3.607,3.815-5.384,5.739c-2.538,2.747-5.06,5.613-7.088,8.694c9.191-38.449,0.2-79.991,0.107-80.413
				c-0.049-0.223-0.24-0.387-0.469-0.404c-0.222-0.019-0.44,0.121-0.52,0.336c-15.98,42.996-0.738,82.111-0.581,82.501
				c0.011,0.028,0.039,0.042,0.054,0.067c-0.005,0.022-0.024,0.036-0.027,0.059c-0.007,0.062,0.023,0.115,0.037,0.173
				c-1.426,2.601-2.449,5.359-2.79,8.334c-0.032,0.283,0.172,0.539,0.455,0.572c0.019,0.002,0.039,0.003,0.06,0.003
				c0.258,0,0.482-0.195,0.513-0.458c0.319-2.783,1.273-5.385,2.613-7.852c3.756,1.562,25.375,10.37,38.57,11.861
				c1.209,0.136,2.392,0.199,3.552,0.199c12.791,0,22.244-7.639,22.346-7.723c0.161-0.132,0.227-0.348,0.166-0.548
				c-0.06-0.2-0.235-0.344-0.442-0.364c-0.115-0.012-11.697-1.207-29.077-4.567c-14.779-2.856-29.843-0.971-34.28-0.294
				c2.072-3.371,4.806-6.493,7.561-9.476c1.72-1.862,3.457-3.713,5.207-5.554c1.856,1.951,9.148,8.67,22.523,9.837
				c0.935,0.082,1.87,0.12,2.802,0.12c7.419,0,14.743-2.427,21.854-4.782c6.77-2.243,13.77-4.562,20.818-4.786
				c0.249-0.008,0.457-0.193,0.494-0.439c0.037-0.246-0.106-0.484-0.341-0.566c-0.22-0.077-22.177-7.579-39.704-2.255
				c-14.32,4.351-24.39,2.537-27.407,1.792c7.151-7.48,14.547-14.78,22.129-21.852c3.083,1.288,25.32,10.428,38.784,11.95
				c1.209,0.136,2.394,0.199,3.553,0.199c12.791,0,22.241-7.638,22.343-7.722c0.161-0.132,0.227-0.348,0.166-0.548
				c-0.061-0.2-0.235-0.343-0.442-0.364c-0.115-0.012-11.7-1.207-29.077-4.567c-14.288-2.762-28.84-1.092-33.8-0.367
				c4.25-3.934,8.551-7.803,12.906-11.581c0.877-0.76,1.768-1.518,2.65-2.276c1.606,1.612,9.19,8.442,23.05,9.104
				c0.501,0.024,1.003,0.036,1.504,0.036c7.87,0,15.53-2.876,22.951-5.663c6.675-2.506,13.578-5.098,20.612-5.599
				c0.249-0.018,0.449-0.21,0.477-0.458c0.027-0.247-0.125-0.479-0.363-0.552c-0.223-0.068-22.462-6.702-39.761-0.696
				c-14.185,4.925-24.336,3.484-27.344,2.86c0.973-0.834,1.938-1.669,2.915-2.503c4.371-3.735,8.778-7.509,13.078-11.399
				c0.506,0.01,2.019,0.036,4.242,0.036c8.209,0,25.872-0.359,36.41-3.219c14.138-3.837,21.232-16.413,21.302-16.54
				C658.891,305.072,658.873,304.847,658.743,304.683z"/>
			<g>
				<g>
					<g>
						<path style="fill:#DCEDFD;" d="M138.566,318.339c-9.184-5.347-20.666-11.146-33.85-15.985l-24.621,12.649l2.553-19.262
							c-9.271-2.152-19.083-3.639-29.297-4.104c0,0-3.868,16.935-1.524,39.024c4.618-1.908,11.677-4.363,17.852-3.834
							c0,0-9.681,11.05-14.516,22.161c3.229,12.256,8.773,25.046,17.979,36.801c1.69-6.443,5.204-17.237,10.895-22.927
							c0,0-2.062,19.508-0.523,34.179c7.794,7.215,17.391,13.747,29.174,19.141c0.394-7.309,1.436-20.036,4.005-23.198
							c0,0,2.022,15.983,7.363,27.79c11.116,3.939,23.875,6.969,38.525,8.807V334.71c0,0-4.077-3.468-11.396-8.437
							c-18.878,4.096-30.551,14.068-30.551,14.068C124.341,330.659,133.769,322.19,138.566,318.339z"/>
					</g>
				</g>
				<g>
					<g>
						<path style="fill:#C7E1F8;" d="M159.346,399.598c-16.114-9.708-31.169-20.893-44.997-33.66
							c-23.456-21.656-42.942-47.101-61.228-73.184c-0.795,4.103-3.286,19.142-1.294,37.907c4.618-1.908,11.677-4.363,17.852-3.834
							c0,0-9.681,11.05-14.516,22.161c3.229,12.256,8.773,25.046,17.979,36.801c1.69-6.443,5.204-17.237,10.895-22.927
							c0,0-2.062,19.508-0.523,34.179c7.794,7.215,17.391,13.747,29.174,19.141c0.394-7.309,1.436-20.036,4.005-23.198
							c0,0,2.022,15.983,7.363,27.79c11.116,3.939,23.875,6.969,38.525,8.807V401.52C161.5,400.886,160.422,400.246,159.346,399.598
							z"/>
					</g>
				</g>
			</g>
			<path style="fill:#F0F3FA;" d="M318.985,181.969c-2.22-17.037-5.815-31.868-10.459-44.782
				c-13.768-6.15-32.378-8.416-32.378-8.416c3.665-3.007,18.469-4.289,26.972-4.787c-6.342-13.683-13.995-24.814-22.433-33.844
				c-17.081-1.711-39.769,0.795-39.769,0.795c6.59-6.652,19.132-10.801,26.62-12.803c-13.728-10.648-28.641-17.029-42.921-20.72
				c-12.903,5.687-25.709,17.013-25.709,17.013c-0.65-7.183,2.17-15.41,4.364-20.794c-0.749-0.076-1.491-0.144-2.229-0.208
				c-0.244-0.021-0.486-0.04-0.729-0.059c-0.499-0.041-0.997-0.08-1.49-0.116c-0.269-0.019-0.536-0.037-0.803-0.055
				c-0.467-0.031-0.931-0.061-1.393-0.088c-0.268-0.016-0.534-0.031-0.8-0.045c-0.47-0.025-0.936-0.047-1.4-0.068
				c-0.243-0.011-0.486-0.022-0.728-0.032c-0.534-0.021-1.062-0.039-1.588-0.055c-0.161-0.005-0.324-0.011-0.485-0.015
				c-0.694-0.019-1.38-0.033-2.059-0.043c-0.094-0.001-0.186-0.001-0.28-0.002c-0.576-0.007-1.147-0.012-1.712-0.013
				c-0.206,0-0.409,0.001-0.614,0.001c-0.456,0.001-0.91,0.003-1.358,0.007c-0.214,0.002-0.426,0.005-0.638,0.008
				c-0.441,0.006-0.877,0.014-1.31,0.023c-0.202,0.005-0.403,0.009-0.603,0.014c-0.458,0.012-0.91,0.026-1.358,0.041
				c-0.159,0.005-0.319,0.01-0.476,0.016c-0.59,0.022-1.173,0.046-1.745,0.073c-0.011,0-0.022,0.001-0.033,0.001
				c-0.604,0.029-1.197,0.061-1.781,0.095c-0.1,0.006-0.196,0.013-0.295,0.018c-0.469,0.028-0.932,0.058-1.387,0.089
				c-0.148,0.01-0.293,0.021-0.44,0.032c-0.404,0.029-0.803,0.059-1.196,0.09c-0.152,0.012-0.302,0.024-0.452,0.036
				c-0.389,0.032-0.771,0.065-1.147,0.098c-0.133,0.012-0.268,0.024-0.4,0.036c-0.413,0.038-0.818,0.077-1.217,0.117
				c-0.085,0.008-0.172,0.017-0.255,0.025c-0.975,0.099-1.902,0.202-2.782,0.308c-0.085,0.01-0.166,0.021-0.25,0.031
				c-0.345,0.042-0.683,0.084-1.012,0.127c-0.112,0.014-0.22,0.029-0.33,0.043c-0.291,0.038-0.576,0.076-0.854,0.115
				c-0.121,0.017-0.241,0.033-0.359,0.05c-0.263,0.037-0.518,0.074-0.769,0.11c-0.108,0.016-0.218,0.032-0.323,0.047
				c-0.281,0.042-0.55,0.083-0.814,0.124c-0.062,0.01-0.128,0.019-0.189,0.029c-0.319,0.05-0.625,0.099-0.918,0.148
				c-0.087,0.014-0.166,0.028-0.25,0.042c-0.199,0.033-0.395,0.066-0.581,0.098c-0.111,0.019-0.214,0.037-0.319,0.056
				c-0.146,0.026-0.29,0.051-0.427,0.076c-0.116,0.021-0.226,0.041-0.336,0.061c-0.104,0.019-0.203,0.037-0.301,0.056
				c-0.119,0.022-0.235,0.044-0.345,0.065c-0.067,0.013-0.128,0.025-0.191,0.037c-1.07,0.208-1.651,0.342-1.651,0.342
				c0.596,11.883,2.38,23.293,4.935,34.069l22.401-3.076L170.62,115.33c5.703,15.315,12.514,28.644,18.786,39.302
				c4.456-5.602,14.259-16.62,25.504-20.987c0,0-11.54,13.637-16.203,35.628c5.822,8.49,9.88,13.214,9.88,13.214l77.743-0.365l0,0
				L318.985,181.969z"/>
			<g>
				<g>
					<path style="fill:#DCEDFD;" d="M590.915,112.074c0.641,4.197,1.16,10.329,0.285,16.841c0,0-6.52-5.95-16.593-7.725
						c-10.105,6.525-18.46,13.727-25.363,21.116c3.971,0.949,8.365,2.538,11.799,5.206c0,0-11.401,1.793-19.862,4.298
						c-21.776,28.371-24.388,56.309-24.388,56.309l20.379,53.232c9.031-5.505,17.14-11.089,24.441-16.708
						c0.438-8.228-1.094-19.278-1.094-19.278c3.202,3.557,6.452,9.822,8.238,13.547c12.108-10.106,21.683-20.275,29.188-30.261
						c-0.9-10.85-6.283-20.137-6.283-20.137c7.784,2.432,11.633,6.274,13.54,9.548c9.988-16.074,14.947-31.412,17.031-44.931
						c-4.112-11.635-10.404-16.28-10.404-16.28c4.617-2.938,8.622-4.349,11.565-5.029c-0.833-18.238-6.091-29.815-6.091-29.815
						C607.603,104.85,598.844,108.259,590.915,112.074z"/>
				</g>
				<g>
					<path style="fill:#C7E1F8;" d="M611.83,136.85c4.617-2.938,8.622-4.349,11.565-5.029c-0.833-18.238-6.091-29.815-6.091-29.815
						c-0.368,0.108-0.725,0.222-1.091,0.332c-7.72,28.86-23.811,55.797-42.245,78.839c-14.594,18.242-31.342,34.521-48.026,50.838
						l11.23,29.335c9.031-5.505,17.14-11.089,24.441-16.708c0.438-8.228-1.094-19.278-1.094-19.278
						c3.202,3.557,6.452,9.822,8.238,13.547c12.108-10.106,21.683-20.275,29.188-30.261c-0.9-10.85-6.283-20.137-6.283-20.137
						c7.784,2.432,11.633,6.274,13.54,9.548c9.988-16.074,14.947-31.412,17.031-44.931C618.122,141.495,611.83,136.85,611.83,136.85
						z"/>
				</g>
			</g>
		</g>
		<g>
			<path style="fill:#385AA3;" d="M549.857,430.864H150.028V171.591c0-5.732,4.647-10.379,10.379-10.379h379.07
				c5.732,0,10.379,4.647,10.379,10.379V430.864z"/>
			<path style="fill:#304F91;" d="M219.412,161.212h-59.005c-5.732,0-10.379,4.647-10.379,10.379v259.273h339.036L219.412,161.212z"
				/>
			<path style="fill:#FFFFFF;" d="M529.942,415.367H169.943V188.121c0-5.161,4.184-9.345,9.345-9.345h341.308
				c5.161,0,9.345,4.184,9.345,9.345V415.367z"/>
			<path style="fill:#F0F3FA;" d="M265.506,178.775h-86.218c-5.161,0-9.345,4.184-9.345,9.345v227.246h332.154L265.506,178.775z"/>
			<path style="fill:#4972C7;" d="M537.976,465.991H161.908c-19.114,0-34.609-15.495-34.609-34.61l0,0
				c0-1.427,1.157-2.584,2.584-2.584h440.12c1.427,0,2.584,1.157,2.584,2.584l0,0C572.586,450.496,557.091,465.991,537.976,465.991z
				"/>
			<path style="fill:#547CD1;" d="M570.002,428.797H367.967l37.193,37.193h132.816c19.114,0,34.609-15.495,34.609-34.61
				C572.586,429.954,571.429,428.797,570.002,428.797z"/>
		</g>
		<g>
			<path style="fill:#FEC164;" d="M247.706,275.148l-7.992-8.288v-9.715c0-2.748-2.228-4.976-4.976-4.976h-48.086
				c-2.748,0-4.976,2.228-4.976,4.976v16.208c0,2.748,2.228,4.976,4.976,4.976h41.966h6.12h11.616
				C248.011,278.328,248.856,276.34,247.706,275.148z"/>
			<g>
				<path style="fill:#FFFFFF;" d="M200.143,265.328c0,2.578-2.09,4.667-4.667,4.667c-2.577,0-4.667-2.09-4.667-4.667
					s2.09-4.667,4.667-4.667C198.054,260.661,200.143,262.751,200.143,265.328z"/>
				<path style="fill:#FFFFFF;" d="M215.363,265.169c0,2.578-2.09,4.667-4.667,4.667c-2.578,0-4.667-2.09-4.667-4.667
					c0-2.578,2.09-4.667,4.667-4.667C213.273,260.502,215.363,262.591,215.363,265.169z"/>
				<path style="fill:#FFFFFF;" d="M230.582,265.169c0,2.578-2.089,4.667-4.667,4.667s-4.667-2.09-4.667-4.667
					c0-2.578,2.09-4.667,4.667-4.667S230.582,262.591,230.582,265.169z"/>
			</g>
		</g>
		<g>
			<g>
				<path style="fill:#FEC164;" d="M490.311,125.358c-0.316,0-0.633-0.096-0.902-0.29l-39.961-28.607
					c-0.065,0.292-0.106,0.592-0.106,0.904v41.773c0,2.284,1.852,4.136,4.136,4.136h73.666c2.284,0,4.136-1.852,4.136-4.136V97.365
					c0-0.618-0.145-1.199-0.388-1.726l-39.658,29.414C490.96,125.256,490.636,125.358,490.311,125.358z"/>
				<path style="fill:#FEC164;" d="M528.575,93.498c-0.448-0.166-0.926-0.27-1.432-0.27h-73.666c-0.838,0-1.616,0.253-2.268,0.682
					l39.085,27.98L528.575,93.498z"/>
			</g>
			<g>
				
					<ellipse transform="matrix(0.2314 -0.9729 0.9729 0.2314 314.6917 586.4968)" style="fill:#DCEDFD;" cx="528.513" cy="94.095" rx="16.283" ry="16.283"/>
				<g>
					<path style="fill:#385AA3;" d="M531.6,103.763c0,1.705-1.382,3.087-3.088,3.087c-1.705,0-3.088-1.382-3.088-3.087
						c0-1.705,1.382-3.088,3.088-3.088C530.218,100.675,531.6,102.057,531.6,103.763z"/>
					<path style="fill:#385AA3;" d="M527.082,97.839l-1.4-13.357c-0.164-1.563,0.971-2.964,2.534-3.127
						c1.563-0.164,2.963,0.971,3.127,2.534c0.021,0.196,0.018,0.405,0,0.593l-1.4,13.357c-0.083,0.79-0.791,1.364-1.581,1.281
						C527.674,99.048,527.151,98.501,527.082,97.839z"/>
				</g>
			</g>
		</g>
		<g>
			<path style="fill:#FEC164;" d="M279.442,185.526l-17.447-18.093v-51.729c0-4.537-3.678-8.214-8.214-8.214h-63.89
				c-4.537,0-8.214,3.678-8.214,8.214v67.186c0,4.537,3.678,8.214,8.214,8.214h55.428l-0.083,0.122h31.784
				C279.988,191.225,281.501,187.662,279.442,185.526z"/>
			<path style="fill:#FFFFFF;" d="M217.755,144.48l-2.658-5.02l6.356-3.366c1.567-0.83,2.165-2.773,1.335-4.34l-5.589-10.555
				c-0.83-1.567-2.773-2.165-4.34-1.335l-3.462,1.833c-7.929,4.199-10.953,14.03-6.755,21.96l3.65,6.893l3.712,7.01l6.169,11.46
				c4.199,7.929,14.03,10.953,21.96,6.755l3.462-1.833c1.567-0.83,2.165-2.773,1.335-4.34l-5.589-10.555
				c-0.83-1.567-2.773-2.165-4.34-1.335l-6.356,3.365l-5.177-9.587L217.755,144.48z"/>
		</g>
		<g>
			<path style="fill:#F3AA81;" d="M514.99,314.001c7.369-11.55,15.773-22.44,25.078-32.496c0.675-0.729,1.371-1.481,1.716-2.413
				c0.344-0.932,0.248-2.103-0.499-2.759c-1.19-1.045-3.036-0.222-4.35,0.662c-3.069,2.064-5.837,4.039-8.591,6.507
				c3.217-4.892,6.435-9.784,9.652-14.676c0.484-0.736,0.976-1.49,1.186-2.346c0.21-0.855,0.086-1.846-0.536-2.47
				c-0.618-0.621-1.605-0.75-2.454-0.533c-0.849,0.218-1.588,0.73-2.286,1.26c-4.414,3.353-7.913,7.74-11.363,12.078
				c3.826-6.245,7.196-12.769,10.073-19.503c0.593-1.387,1.13-3.105,0.207-4.298c-0.681-0.882-1.974-1.105-3.045-0.796
				c-1.071,0.309-1.959,1.051-2.758,1.827c-5.129,4.98-7.802,11.898-10.328,18.585c1.492-5.798,2.858-11.271,3.235-17.252
				c0.09-1.431-0.037-3.192-1.328-3.814c-0.914-0.44-2.054-0.044-2.771,0.673c-0.717,0.717-1.105,1.691-1.47,2.637
				c-2.227,5.764-4.32,11.58-6.277,17.441c-0.358,1.071-3.484,12.671-6.402,8.695c-0.423-0.577-0.57-1.305-0.706-2.007
				c-0.444-2.297-0.888-4.594-1.332-6.89c-0.227-1.176-0.476-2.401-1.216-3.342c-1.555-1.981-3.905-1.181-4.325,1.122
				c-1.919,10.522,3.703,21.074,3.191,31.758C504.149,303.708,510.697,308.272,514.99,314.001z"/>
			<path style="fill:#226B9E;" d="M229.876,415.367c0,0,19.842-82.74,28.803-104.502c8.961-21.763,15.028-33.037,45.919-42.122
				c30.89-9.084,88.497-6.844,106.74,8.838c18.242,15.682,45.766,83.21,45.766,83.21l39.685-61.127c0,0,14.402,5.761,20.163,13.762
				c0,0-40.005,97.292-59.847,98.572c-19.842,1.28-48.006-61.127-48.006-61.127l10.561,64.498H229.876z"/>
			<path style="fill:#1A5680;" d="M265.512,307.176c1.855-7.222,4.124-14.46,7.14-21.31c-6.031,6.53-9.672,14.555-13.973,24.999
				c-8.961,21.763-28.804,104.503-28.804,104.503h7.976C237.93,415.213,263.143,316.401,265.512,307.176z"/>
			<path style="fill:#1A5680;" d="M515.544,315.379c-6.819,8.572-13.638,17.365-20.008,26.259
				c-7.049,9.842-12.414,20.795-20.733,29.73c-9.239,9.923-23.098,14.565-34.19,4.454c-6.368-5.805-9.925-14.443-14.101-21.812
				c-4.798-8.467-9.652-16.909-14.03-25.604c-2.388-4.742-4.631-9.562-6.653-14.459c-0.028,2.257-0.022,4.511,0.069,6.753
				c0.464,11.514,2.727,23.117,5.199,34.412c6.764,14.024,29.325,57.959,46.007,56.883c18.988-1.225,56.433-90.355,59.624-98.034
				C516.334,314.436,515.928,314.897,515.544,315.379z"/>
			<path style="fill:#214A6A;" d="M392.008,265.659c-5.393-2.53-10.903-4.811-16.505-6.835c-4.345-1.57-8.45-3.919-13.034-4.415
				c-11.131-1.204-22.628-0.034-33.363,3.084c-11.864,3.445-22.946,8.07-34.408,12.949c-3.124,1.329-6.486,2.873-8.045,5.889
				c-2.174,4.204,0.106,9.341,2.997,13.089c2.852,3.697,6.321,6.908,8.934,10.778c2.613,3.87,4.335,8.713,3.094,13.214
				c-1.523,5.527-7.096,9.288-8.392,14.873c-0.94,4.052,0.565,8.226,2.046,12.113c3.007,7.892,6.013,15.784,9.02,23.676
				c5.291,13.887,11.19,28.585,23.286,37.218c5.234,3.736,12.002,6.133,18.122,4.157c5.287-1.707,9.069-6.287,12.299-10.808
				c9.116-12.759,16.282-26.776,22.704-41.046c2.742-6.092,5.672-11.953,8.569-17.83c2.531-5.136,1.71-12.061-2.574-16.027
				c-2.038-1.887-4.754-3.253-5.867-5.797c-1.513-3.457,0.594-7.331,2.525-10.573c5.119-8.596,9.467-17.65,12.976-27.018
				c0.781-2.086,1.52-4.42,0.685-6.484C396.234,267.779,394.046,266.615,392.008,265.659z"/>
			<path style="fill:#FFFFFF;" d="M324.737,255.809c0,0-17.043,79.419-9.883,159.557c0,0,57.9,0,58.212,0
				s-6.943-128.144-2.227-154.746L324.737,255.809z"/>
			<path style="fill:#DDE1EB;" d="M327.507,415.367h0.609c-0.059-1.062-0.099-2.124-0.151-3.186
				C327.809,413.242,327.657,414.304,327.507,415.367z"/>
			<path style="fill:#DDE1EB;" d="M370.839,260.621l-7.749-0.809c-4.085,25.918-3.737,52.501-2.792,78.653
				c0.632,17.476,1.585,34.921,1.995,52.407c0.19,8.108,0.242,16.148,1.666,24.151c0.02,0.115,0.042,0.229,0.062,0.343h9.044
				C373.377,415.367,366.122,287.222,370.839,260.621z"/>
			<g>
				<path style="fill:#E6996F;" d="M368.51,218.539c0.254-0.181,0.507-0.358,0.76-0.532c0.965,2.89,0.716,6.024,0.505,9.063
					c-0.376,5.425-0.801,10.794-0.99,16.227c-0.174,5.012,0.804,9.491,1.816,14.435c0.195,0.952,0.39,1.929,0.237,2.888
					c-0.175,1.093-0.789,2.066-1.483,2.928c-5.094,6.332-14.184,7.628-22.307,7.372c-6.764-0.213-14.131-1.222-19.861-5.113
					c-3.429-2.329-2.284-3.399-2.206-7.038c0.058-2.705,0.031-4.918,0.563-7.654c0.385-1.979,3.482-18.517,0.848-18.476
					c7.492-0.123,14.948-1.472,22.056-3.829c3.458-1.147,6.967-2.51,10.303-3.913C362.206,223.445,365.399,220.753,368.51,218.539z"
					/>
				<path style="fill:#CC835B;" d="M370.602,257.733c-1.012-4.944-1.99-9.423-1.816-14.435c0.188-5.433,0.614-10.802,0.99-16.227
					c0.211-3.04,0.46-6.174-0.505-9.063c-0.253,0.173-0.507,0.351-0.761,0.532c-3.111,2.214-6.304,4.907-9.759,6.359
					c-3.335,1.403-6.845,2.766-10.302,3.913c-7.108,2.357-14.564,3.706-22.056,3.829c1.69-0.026,1.02,6.763,0.222,12.162
					c8.854,4.182,20.329,0.141,27.94,7.607c4.362,4.279,6.351,10.287,7.614,16.334c2.785-1.142,5.27-2.81,7.188-5.194
					c0.694-0.862,1.308-1.835,1.483-2.928C370.993,259.661,370.797,258.684,370.602,257.733z"/>
				<path style="fill:#464559;" d="M386.621,142.677c2.787,4.283,4.46,9.837,5.891,14.72c1.344,4.589,2.044,9.367,2.066,14.149
					c0.023,5.042,0.364,9.924-0.458,14.943c-1.207,7.368-4.011,14.413-8.316,20.519c-4.395,6.234-10.302,10.699-15.263,16.398
					c-1.348,1.549-3.459,3.926-5.804,2.55c-1.742-1.022-1.555-3.55-1.215-5.541c1.724-10.108,1.474-20.542-0.709-30.56
					c-2.1-9.637-5.155-18.822-6.303-28.726c-0.712-6.14-5.248-3.533-9.233-2.185c-5.17,1.748-10.833,2.943-16.161,1.137
					c-1.769-0.6-3.432-1.512-5.25-1.941c-1.906-0.45-3.892-0.349-5.848-0.246c-10.821,0.573-20.257,3.008-30.711-1.615
					c-6.492-2.871-10.61-9.259-9.087-16.577c1.555-7.472,9.2-12.858,16.754-12.003c2.244,0.254,4.465,1.003,6.711,0.765
					c2.907-0.308,3.728-2.486,5.429-4.391c1.862-2.085,4.405-3.799,6.805-5.193c5.011-2.909,10.717-4.579,16.48-5.063
					c13.197-1.107,29.679,2.611,37.397,14.275c1.042,1.575,1.96,3.301,3.46,4.449c1.313,1.005,2.946,1.469,4.457,2.143
					C381.407,136.331,384.415,139.286,386.621,142.677z"/>
				<g>
					<path style="fill:#3C3B4D;" d="M384.155,209.184c3.324-7.69,5.518-15.65,1.576-23.333c-2.572-5.013-6.352-7.597-6.558-13.555
						c-0.233-6.756,0.627-13.57-0.919-20.237c-1.573-6.783-6.482-15.387-11.833-19.898c-5.236-4.414-12.876-7.279-19.429-8.959
						c-7.232-1.854-14.653-1.826-22.05-1.329c-5.278,0.355-10.469,1.415-15.702,2.07c-0.04,0.044-0.084,0.086-0.124,0.13
						c-1.701,1.905-2.522,4.083-5.429,4.391c-2.246,0.238-4.467-0.511-6.711-0.765c-0.794-0.09-1.589-0.096-2.378-0.053
						c-1.433,3.3-1.18,7.32,2.525,8.588c2.224,0.761,5.023,0.55,7.343,0.521c7.871-0.097,16.251-5.07,24.17-5.044
						c11.533,0.038,24.589,0.568,33.836,8.449c9.769,8.326,9.137,29.427,8.529,40.945c-0.428,8.11-2.643,15.554-6.448,22.284
						c0.254,5.691-0.072,11.408-1.03,17.025c-0.34,1.991-0.527,4.518,1.215,5.541c2.344,1.376,4.456-1.001,5.804-2.55
						C374.906,218.392,380,214.331,384.155,209.184z"/>
				</g>
				<path style="fill:#F3AA81;" d="M327.248,149.34c-8.147,1.206-14.28,7.039-22.267,8.656c-0.13,0.026-0.276,0.062-0.344,0.176
					c-0.065,0.108-0.036,0.245-0.004,0.367c0.862,3.377,1.892,6.567,2.203,10.067c0.597,6.741,0.599,13.67-0.463,20.366
					c-1.054,6.644-2.687,13.324-2.066,20.099c0.745,8.129,4.899,15.892,11.25,21.021c8.818,7.123,21.139,8.154,31.908,5.766
					c18.03-3.999,28.743-22.393,27.665-40.125c-0.029-0.472-0.041-1.01,0.299-1.338c0.172-0.167,0.408-0.247,0.636-0.323
					c4.007-1.33,7.505-3.124,8.811-7.517c0.527-1.773,0.564-3.776-0.34-5.39c-2.858-5.103-9.908-1.36-11.97,2.357
					c-0.711,1.281-0.61,2.237-2.164,2.69c-2.709,0.79-3.876,0.584-4.908-2.176c-1.237-3.308-0.081-6.205-0.081-9.538
					c0-3.529,0.442-6.343-1.436-9.332c-0.956-1.521-2.266-2.822-3.018-4.453c-0.764-1.657-0.894-3.534-0.855-5.358
					c0.07-3.219,0.636-6.427,1.67-9.476c-2.319,1.927-4.774,3.788-7.623,4.774c-4.284,1.482-8.987,0.837-13.436-0.031
					C336.264,149.757,331.732,148.676,327.248,149.34z"/>
				<path style="fill:#E6996F;" d="M384.533,181.167c-2.858-5.103-9.908-1.36-11.97,2.357c-0.711,1.281-0.61,2.237-2.164,2.69
					c-2.709,0.79-3.876,0.584-4.908-2.176c-1.237-3.308-0.081-6.205-0.081-9.538c0-3.529,0.442-6.343-1.435-9.332
					c-0.956-1.521-2.266-2.822-3.018-4.453c-0.764-1.657-0.894-3.534-0.855-5.358c0.07-3.219,0.636-6.427,1.67-9.475
					c-2.319,1.927-4.773,3.788-7.623,4.774c-4.284,1.482-8.987,0.837-13.436-0.031c-4.449-0.868-8.982-1.949-13.466-1.285
					c-8.147,1.206-14.28,7.039-22.267,8.656c-0.13,0.026-0.276,0.062-0.344,0.176c-0.065,0.108-0.035,0.245-0.004,0.367
					c0.141,0.551,0.288,1.092,0.434,1.635c3.572-0.319,7.11-0.854,10.57-1.818c3.438-0.958,6.69-2.432,10.085-3.519
					c2.842-0.91,5.804-1.596,8.807-1.512c3.131,0.088,6.125,1.113,9.139,1.862c3.349,0.832,7.945,0.048,9.43,3.895
					c1.397,3.619,0.769,7.814,1.015,11.597c0.398,6.135,2.454,12.123,3.487,18.165c0.967,5.652,1.282,11.348,0.574,17.053
					c-1.224,9.869-5.072,20.119-12.917,26.604c-2.124,1.756-4.454,3.154-6.897,4.294c3.063-0.049,6.117-0.273,9.104-0.936
					c18.031-3.999,28.744-22.393,27.665-40.125c-0.029-0.472-0.041-1.01,0.299-1.338c0.172-0.167,0.408-0.247,0.636-0.323
					c4.007-1.33,7.505-3.124,8.811-7.517C385.4,184.783,385.437,182.78,384.533,181.167z"/>
				<g>
					<path style="fill:#464559;" d="M320.245,161.91c-1.027-1.691-4.129-1.626-5.675-0.972c-3.595,1.52-8.818,5.79-9.999,9.665
						c-0.195,0.64-0.107,1.409,0.382,1.866c0.498,0.466,1.285,0.497,1.926,0.263c0.641-0.233,1.174-0.685,1.706-1.112
						c2.386-1.914,5.034-3.499,7.848-4.697c1.105-0.471,2.27-0.903,3.126-1.746C320.417,164.336,320.869,162.937,320.245,161.91z"/>
				</g>
				<g>
					<path style="fill:#464559;" d="M342.675,161.22c1.027-1.691,4.13-1.626,5.675-0.972c3.595,1.52,8.818,5.79,9.999,9.664
						c0.195,0.64,0.106,1.409-0.382,1.866c-0.498,0.466-1.285,0.497-1.926,0.263c-0.641-0.233-1.174-0.685-1.707-1.112
						c-2.385-1.913-5.034-3.499-7.848-4.696c-1.105-0.471-2.27-0.903-3.126-1.746C342.503,163.645,342.051,162.247,342.675,161.22z"
						/>
				</g>
				<g>
					<path style="fill:#313042;" d="M321.165,178.559c0,1.722-1.396,3.119-3.119,3.119c-1.723,0-3.119-1.396-3.119-3.119
						c0-1.723,1.396-3.119,3.119-3.119C319.768,175.44,321.165,176.836,321.165,178.559z"/>
				</g>
				<g>
					<path style="fill:#313042;" d="M345.682,178.559c0,1.722-1.396,3.119-3.119,3.119s-3.119-1.396-3.119-3.119
						c0-1.723,1.396-3.119,3.119-3.119S345.682,176.836,345.682,178.559z"/>
				</g>
			</g>
			<path style="fill:#CC835B;" d="M330.437,172.887c0.241,3.584,0.597,7.171,0.739,10.795c0.044,1.815,0.185,3.605-0.028,5.529
				c-0.214,1.886-0.777,3.753-1.744,5.445c-0.485,0.843-1.08,1.638-1.79,2.333c-0.712,0.712-1.55,1.253-2.234,1.744
				c-0.699,0.497-1.276,1.02-1.5,1.567c-0.227,0.518-0.182,1.229,0.103,1.827c0.283,0.606,0.812,1.134,1.437,1.479
				c0.623,0.342,1.353,0.481,2.118,0.449c1.54-0.097,3.114-0.911,4.496-1.929l0.009-0.007c0.23-0.17,0.555-0.121,0.724,0.11
				c0.151,0.206,0.129,0.486-0.041,0.664c-1.287,1.354-2.946,2.519-5.019,2.82c-2.063,0.352-4.454-0.708-5.434-2.764
				c-0.504-1.011-0.62-2.264-0.128-3.405c0.509-1.124,1.398-1.786,2.148-2.326c0.784-0.547,1.473-0.986,2.041-1.547
				c0.583-0.56,1.086-1.213,1.506-1.926c0.843-1.428,1.344-3.077,1.602-4.756c0.242-1.656,0.172-3.484,0.179-5.266
				c-0.049-3.579-0.201-7.182-0.215-10.799c-0.001-0.285,0.229-0.518,0.515-0.519C330.193,172.404,330.418,172.618,330.437,172.887z
				"/>
			<g>
				<path style="fill:#FFFFFF;" d="M328.962,212.211c-2.07,0.523-4.113,1.104-6.069,1.828c-1.442,0.534-1.739,0.169-1.786,1.681
					c-0.026,0.808,0.76,2.019,1.17,2.682c0.98,1.585,2.44,2.973,4.155,3.735c3.073,1.432,6.896,1.102,9.678-0.834
					c1.939-1.35,3.301-3.4,3.818-5.703c0.369-1.645,0.885-6.309-1.78-5.603C335.159,210.789,332.031,211.436,328.962,212.211z"/>
			</g>
			<g>
				<g>
					
						<ellipse transform="matrix(0.7071 -0.7071 0.7071 0.7071 -19.9153 322.1483)" style="fill:#E6F5FF;" cx="378.91" cy="185.114" rx="12.208" ry="12.208"/>
					<circle style="fill:#226B9E;" cx="378.91" cy="185.114" r="6.336"/>
				</g>
				<path style="fill:#E6F5FF;" d="M378.224,178.373c-1.356-0.072-2.436-1.189-2.444-2.564c-0.041-7.068-0.084-14.377-1.353-21.356
					c-1.39-7.651-4.11-13.914-8.083-18.618c-3.55-4.202-8.073-7.473-13.141-9.6c-5.799-2.434-12.126-3.384-18.387-3.419
					c-9.573-0.054-19.143,1.911-28.204,4.91c-0.987,0.327-1.957,0.72-2.946,1.035c-0.215,0.068-0.453,0.13-0.66,0.042
					c-0.247-0.106-0.368-0.401-0.353-0.669c0.067-1.178,1.305-2.447,2.061-3.259c2.973-3.194,7.519-4.162,11.615-5.143
					c5.571-1.335,11.344-1.965,17.063-2.064c6.63-0.101,13.334,0.704,19.602,2.937c6.706,2.389,12.697,6.453,17.296,11.898
					c4.564,5.402,7.665,12.477,9.219,21.027c1.349,7.422,1.394,14.96,1.436,22.25c0.008,1.426-1.141,2.589-2.568,2.598
					C378.326,178.377,378.275,178.376,378.224,178.373z"/>
				<g>
					<path style="fill:#E6F5FF;" d="M347.914,226c-0.652,0-1.259-0.415-1.473-1.07c-0.266-0.814,0.179-1.688,0.992-1.954
						c6.922-2.259,15.537-5.071,20.703-11.264c4.422-5.302,5.991-12.597,7.376-19.034c0.181-0.837,1.01-1.366,1.841-1.189
						c0.836,0.18,1.369,1.004,1.189,1.841c-1.46,6.787-3.115,14.479-8.027,20.367c-5.737,6.877-14.822,9.843-22.121,12.225
						C348.236,225.975,348.074,226,347.914,226z"/>
					<path style="fill:#226B9E;" d="M346.514,229.576l-2.65,0.734c-2.461,0.681-5.008-0.761-5.689-3.222l0,0
						c-0.681-2.461,0.761-5.008,3.221-5.689l2.65-0.734c2.461-0.681,5.008,0.761,5.689,3.222l0,0
						C350.417,226.347,348.975,228.894,346.514,229.576z"/>
				</g>
			</g>
			<polygon style="fill:#1A5680;" points="270.82,415.367 280.391,354.121 278.454,415.367 			"/>
		</g>
	</g>
</g>
</svg>
